<svg xmlns="http://www.w3.org/2000/svg" viewBox="0 0 121.71 100.15"><defs><style>.cls-1{fill:#d8d685;}.cls-2{fill:#d8d584;}.cls-3{fill:#dad788;}.cls-4{fill:#ddda91;}.cls-5{fill:#dcda90;}.cls-6{fill:#dddb91;}.cls-7{fill:#dddb93;}.cls-8{fill:#dddb94;}.cls-9{fill:#d9d788;}.cls-10{fill:#dedb93;}.cls-11{fill:#dedc96;}.cls-12{fill:#dfdc97;}.cls-13{fill:#dedb94;}.cls-14{fill:#e0de9c;}.cls-15{fill:#d6d37b;}.cls-16{fill:#d7d47e;}.cls-17{fill:#dedc98;}.cls-18{fill:#f0efd2;}.cls-19{fill:#f8f6e8;}.cls-20{fill:#dcdb95;}.cls-21{fill:#e8e7bb;}.cls-22{fill:#dfdd99;}.cls-23{fill:#d7d580;}.cls-24{fill:#e9e8bd;}.cls-25{fill:#fefefc;}.cls-26{fill:#dbda8f;}.cls-27{fill:#d6d47e;}.cls-28{fill:#dad88a;}.cls-29{fill:#d6d47d;}.cls-30{fill:#d7d57e;}.cls-31{fill:#dad88b;}.cls-32{fill:#dfdd9b;}.cls-33{fill:#dcda91;}</style></defs><title>Asset 1</title><g id="Layer_2" data-name="Layer 2"><g id="Layer_1-2" data-name="Layer 1"><path class="cls-1" d="M67.42,92l-6.24,8.15A37.24,37.24,0,0,1,52.42,89h1l2.43-.43L54.42,88V87c-.67-1-1.34-2-2-3-.34-.33-.67-.67-1-1a8.17,8.17,0,0,0-.34-1.81c-.88-2.06-2.68-3.73-2.66-6.19l-1-1V73c.15-.76-.5-1.91,1-2,.15.76-.5,1.91,1,2v1c.33.33.66.67,1,1l8.79,17.54c.69-15.7.44-65.32-.31-69.54H25.42c.26-.33.52-1,.79-1Q42.92,22,59.63,22c.26,0,.52.63.79,1q0,35.24,0,70.46c0,.12.19.27.32.35s.23,0,.67,0V23c.26-.33.52-1,.79-1Q78.92,22,95.63,22c.26,0,.52.63.79,1-10.58,0-21.16,0-31.73,0-.8,0-2.1-.69-2.27,1q0,33.72,0,67.45c0,.12.18.27.31.36s.23,0,.36,0c1.77-3.75,3.29-7.67,5.41-11.22,1.31-2.19,1.73-4.94,3.91-6.6.33.33.66.67,1,1,0,2.76-2.21,4.58-3,7a4.58,4.58,0,0,0-2,4c-1.5.09-.85,1.24-1,2l-.83.39L68.42,90v1C68.08,91.33,67.75,91.67,67.42,92Z"/><path class="cls-2" d="M60.42,23c-.27-.33-.53-1-.79-1Q42.92,22,26.21,22c-.27,0-.53.63-.79,1,.33,1,.66,2,1,3l1,1v1c.15.76-.5,1.91,1,2h1v2c-.34.33-.67.67-1,1a4.58,4.58,0,0,1-2-4l-1-1-2.35-4.77h-19c.56,1.17.94,2,1.33,2.77l-1,1a2.92,2.92,0,0,1-2.09-2.35C2.06,23.68,1,23,0,21.82L3.42,19l1,1c0,1.33,1,1,1.74,1,5.55,0,11.1,0,16.53,0l2.73-2c.33.41.64.86,1,1.24a7.62,7.62,0,0,0,1,.76h67a9.27,9.27,0,0,0,1-.76c.37-.38.67-.83,1-1.24l2.72,2h18.28c.33-.33.66-.67,1-1h1l2.29,1.67c-1.22,1.56-1.15,3.73-3.29,4.33h-1V23.15H99.13L96.42,27c-.34-.33-.67-.67-1-1V24c.33-.33.66-.67,1-1-.27-.33-.53-1-.79-1Q78.92,22,62.21,22c-.27,0-.53.63-.79,1Z"/><path class="cls-3" d="M62.42,21h-1c0-3.33.06-6.65,0-10s.39-6.62-1-9.85V21h-1V2h-13V0h53.72l19.28,20h-2c-.34-.33-.67-.67-1-1l-1-1c-.34-.33-.67-.67-1-1s-.67-.67-1-1l-1-1c-.34-.33-.67-.67-1-1l-1-1c-.34-.33-.67-.67-1-1l-1-1c-.34-.33-.67-.67-1-1l-1-1c-.34-.33-.67-.67-1-1l-1-1c-.34-.33-.67-.67-1-1l-1-1c-.34-.33-.67-.67-1-1l-1-1c-.34-.33-.67-.67-1-1H79.3l3.12,4-1,1-6.2-4.89H62.42Z"/><path class="cls-3" d="M4.42,20l-1-1c3.16-3.33,6.29-6.68,9.49-10,2.88-3,5.84-5.86,9-9h23.5L43.56,1.51,44.42,3h-2c0-1.36-1.06-1-1.78-1C34.7,2,28.76,2,22.92,2c-2.8,2.79-5.46,5.52-8.19,8.17C11.33,13.48,7.86,16.72,4.42,20Z"/><path class="cls-4" d="M46.42,82c-1.29-2.6-4.5-3.83-5-7-.34-.33-.67-.67-1-1s-.67-.67-1-1V72l1-1,1,1,1,1,5,7c.33.33.66.67,1,1s.66.67,1,1l1,1v1c.33.33.66.67,1,1,.66.67,1.33,1.33,2,2v1h-2c-.34-.33-.67-.67-1-1l-1-1c-.34-.67-.67-1.33-1-2l-1-1Z"/><path class="cls-4" d="M114.42,31c-.34.67-.67,1.33-1,2-.34.33-.67.67-1,1s-.67.67-1,1a11.32,11.32,0,0,1-5,6l-1-1,5-7,1-1,1-1,1-1c.33-.67.66-1.33,1-2,.33-.33.66-.67,1-1s.66-.67,1-1h1v2l-1,1c-.34.33-.67.67-1,1Z"/><path class="cls-5" d="M68.42,90l-1.83-1.61.83-.39,1-1a2.46,2.46,0,0,0,2-3c.66-.67,1.33-1.33,2-2,.33-.33.66-.67,1-1s.66-.67,1-1,.66-.67,1-1c.33-.67.66-1.33,1-2,.33-.33.66-.67,1-1s.66-.67,1-1l1,1v1c-.34.33-.67.67-1,1s-.67.67-1,1-.67.67-1,1c-.34.67-.67,1.33-1,2l-1,1-1,1A11.32,11.32,0,0,1,68.42,90Z"/><path class="cls-4" d="M22.42,51c-1.29-2.6-4.5-3.83-5-7l-1-1-1-1V40h1l1,1,1,1,5,7,1,1,1,1v1l-1,1-1-1Z"/><path class="cls-4" d="M105.42,40l1,1v1c-.34.33-.67.67-1,1s-.67.67-1,1c-.66,2.45-2.81,3.91-4,6-.34.33-.67.67-1,1s-.67.67-1,1-.67.67-1,1c-.34-.33-.67-.67-1-1V51l1-1,1-1,5-7c.33-.33.66-.67,1-1S105.08,40.33,105.42,40Z"/><path class="cls-6" d="M40.42,71l-1,1a11.28,11.28,0,0,1-5-6l-1-1-1-1V63c.33-.33.66-.67,1-1l1,1,1,1Z"/><path class="cls-7" d="M90.42,62c-.94,2-1.73,4.09-4,5l-1-1c.66-2.45,2.8-3.91,4-6l1-1,1-1h2v1c-.34.33-.67.67-1,1s-.67.67-1,1S90.75,61.67,90.42,62Z"/><path class="cls-7" d="M4.42,27l1-1c2.27.91,3.06,3,4,5l1,1,1,1c.33.67.66,1.33,1,2h-2l-1-1-1-1C7.22,30.91,5.08,29.45,4.42,27Z"/><path class="cls-4" d="M79.42,76l-1-1c.33-.67.66-1.33,1-2,.33-.33.66-.67,1-1s.66-.67,1-1,.66-.67,1-1c.33-.67.66-1.33,1-2l1-1h2v1c-.34.33-.67.67-1,1s-.67.67-1,1-.67.67-1,1c-.34.67-.67,1.33-1,2l-1,1-1,1Z"/><path class="cls-7" d="M33.42,62c-.34.33-.67.67-1,1-2.28-.91-3.06-3-4-5l1-1C31.69,57.91,32.48,60,33.42,62Z"/><path class="cls-7" d="M24.42,53l1-1c2.27.91,3.06,3,4,5l-1,1C26.14,57.09,25.36,55,24.42,53Z"/><path class="cls-7" d="M96.42,52c.33.33.66.67,1,1-.94,2-1.73,4.09-4,5l-1-1C93.36,55,94.14,52.91,96.42,52Z"/><path class="cls-8" d="M15.42,40v1l-1-1-1-1-1-1c-.34-.33-.67-.67-1-1V36h2l1,1,1,1v2Z"/><path class="cls-9" d="M44.42,3l-.86-1.49L45.42,0h1V2C46.33,3.5,45.18,2.85,44.42,3Z"/><path class="cls-4" d="M117.42,27V26h1C118.08,26.33,117.75,26.67,117.42,27Z"/><path class="cls-4" d="M116.42,29c.33-.33.66-.67,1-1C117.08,28.33,116.75,28.67,116.42,29Z"/><path class="cls-4" d="M115.42,30c.33-.33.66-.67,1-1C116.08,29.33,115.75,29.67,115.42,30Z"/><path class="cls-7" d="M8.42,33l1,1Z"/><path class="cls-10" d="M112.42,34c.33-.33.66-.67,1-1C113.08,33.33,112.75,33.67,112.42,34Z"/><path class="cls-7" d="M9.42,34l1,1Z"/><path class="cls-10" d="M111.42,35c.33-.33.66-.67,1-1C112.08,34.33,111.75,34.67,111.42,35Z"/><path class="cls-7" d="M10.42,35h1v1Z"/><path class="cls-11" d="M11.42,37c.33.33.66.67,1,1Z"/><path class="cls-11" d="M12.42,38l1,1Z"/><path class="cls-11" d="M13.42,39l1,1Z"/><path class="cls-8" d="M15.42,42l1,1Z"/><path class="cls-10" d="M105.42,43c.33-.33.66-.67,1-1C106.08,42.33,105.75,42.67,105.42,43Z"/><path class="cls-8" d="M16.42,43l1,1Z"/><path class="cls-10" d="M104.42,44c.33-.33.66-.67,1-1C105.08,43.33,104.75,43.67,104.42,44Z"/><path class="cls-12" d="M99.42,51c.33-.33.66-.67,1-1C100.08,50.33,99.75,50.67,99.42,51Z"/><path class="cls-13" d="M22.42,51l1,1Z"/><path class="cls-12" d="M98.42,52c.33-.33.66-.67,1-1C99.08,51.33,98.75,51.67,98.42,52Z"/><path class="cls-13" d="M23.42,52l1,1Z"/><path class="cls-12" d="M97.42,53c.33-.33.66-.67,1-1C98.08,52.33,97.75,52.67,97.42,53Z"/><path class="cls-11" d="M92.42,60c.33-.33.66-.67,1-1C93.08,59.33,92.75,59.67,92.42,60Z"/><path class="cls-11" d="M91.42,61c.33-.33.66-.67,1-1C92.08,60.33,91.75,60.67,91.42,61Z"/><path class="cls-11" d="M90.42,62c.33-.33.66-.67,1-1C91.08,61.33,90.75,61.67,90.42,62Z"/><path class="cls-7" d="M32.42,64l1,1Z"/><path class="cls-7" d="M33.42,65l1,1Z"/><path class="cls-7" d="M85.42,69c.33-.33.66-.67,1-1C86.08,68.33,85.75,68.67,85.42,69Z"/><path class="cls-7" d="M84.42,70c.33-.33.66-.67,1-1C85.08,69.33,84.75,69.67,84.42,70Z"/><path class="cls-7" d="M83.42,71c.33-.33.66-.67,1-1C84.08,70.33,83.75,70.67,83.42,71Z"/><path class="cls-7" d="M39.42,73c.33.33.66.67,1,1C40.08,73.67,39.75,73.33,39.42,73Z"/><path class="cls-13" d="M81.42,74l1-1Z"/><path class="cls-4" d="M114.42,31c.33-.33.66-.67,1-1C115.08,30.33,114.75,30.67,114.42,31Z"/><path class="cls-7" d="M40.42,74c.33.33.66.67,1,1C41.08,74.67,40.75,74.33,40.42,74Z"/><path class="cls-13" d="M80.42,75l1-1Z"/><path class="cls-4" d="M78.42,78c.33-.33.66-.67,1-1C79.08,77.33,78.75,77.67,78.42,78Z"/><path class="cls-4" d="M77.42,79c.33-.33.66-.67,1-1C78.08,78.33,77.75,78.67,77.42,79Z"/><path class="cls-4" d="M76.42,80c.33-.33.66-.67,1-1C77.08,79.33,76.75,79.67,76.42,80Z"/><path class="cls-5" d="M67.42,92c.33-.33.66-.67,1-1C68.08,91.33,67.75,91.67,67.42,92Z"/><path class="cls-14" d="M51.42,88h1v1C52.08,88.67,51.75,88.33,51.42,88Z"/><path class="cls-14" d="M50.42,87c.33.33.66.67,1,1Z"/><path class="cls-14" d="M49.42,86l1,1C50.08,86.67,49.75,86.33,49.42,86Z"/><path class="cls-13" d="M73.42,84c.33-.33.66-.67,1-1C74.08,83.33,73.75,83.67,73.42,84Z"/><path class="cls-8" d="M47.42,83l1,1Z"/><path class="cls-13" d="M74.42,83c.33-.33.66-.67,1-1C75.08,82.33,74.75,82.67,74.42,83Z"/><path class="cls-8" d="M46.42,82l1,1Z"/><path class="cls-15" d="M60.42,23h1V93.82c-.44,0-.59.05-.67,0s-.32-.23-.32-.35Q60.42,58.23,60.42,23Z"/><path class="cls-16" d="M75.42,70c.09,2-.09,3.83-2,5-.34-.33-.67-.67-1-1V72c1.49-.09.85-1.24,1-2l1-1C74.75,69.33,75.08,69.67,75.42,70Z"/><path class="cls-17" d="M47.42,73a4.58,4.58,0,0,1-2-4c1.49-.09.85-1.24,1-2a4.6,4.6,0,0,1,2,4C46.92,71.09,47.57,72.24,47.42,73Z"/><path class="cls-18" d="M70.42,82v2a2.46,2.46,0,0,1-2,3V86A4.58,4.58,0,0,1,70.42,82Z"/><path class="cls-14" d="M53.42,87c-.67-.67-1.34-1.33-2-2,.33-.33.66-.67,1-1,.66,1,1.33,2,2,3Z"/><path class="cls-19" d="M52.42,84c-.34.33-.67.67-1,1-.34-.33-.67-.67-1-1V83h1C51.75,83.33,52.08,83.67,52.42,84Z"/><path class="cls-17" d="M48.42,71c1.49.09.85,1.24,1,2C47.92,72.91,48.57,71.76,48.42,71Z"/><path class="cls-20" d="M54.42,88l1.43.57L53.42,89V88Z"/><path class="cls-21" d="M68.42,86v1l-1,1C67.57,87.24,66.92,86.09,68.42,86Z"/><path class="cls-22" d="M49.42,73l1,1h-1Z"/><path class="cls-22" d="M48.42,75l-1-1Z"/><path class="cls-17" d="M49.42,74h1v1C50.08,74.67,49.75,74.33,49.42,74Z"/><circle class="cls-23" cx="52.92" cy="88.5" r="0.71"/><circle class="cls-24" cx="53.92" cy="87.5" r="0.71"/><path class="cls-25" d="M62.42,21V2.11h12.8L81.42,7c.33.33.66.67,1,1l1,1c2.54,3,5,6.15,8.55,8.18,1.21.69,2.88,1.76,2.45,3.82Z"/><path class="cls-25" d="M44.42,3c.76-.15,1.91.5,2-1h13V21h-32a2.22,2.22,0,0,1,1-2.52c3.75-2,6.37-5.24,9-8.48.33-.33.66-.67,1-1s.66-.67,1-1C41.08,6.33,42.75,4.67,44.42,3Z"/><path class="cls-26" d="M84.42,8c4.4,3.22,8.82,6.44,12,11-.34.41-.64.86-1,1.24a9.27,9.27,0,0,1-1,.76c.43-2.06-1.24-3.13-2.45-3.82-3.59-2-6-5.14-8.55-8.18Z"/><path class="cls-5" d="M25.42,19c2.24-2.74,4.31-5.61,7.66-7.24A17.94,17.94,0,0,0,36.42,9l1,1c-2.6,3.24-5.22,6.46-9,8.48a2.22,2.22,0,0,0-1,2.52,7.62,7.62,0,0,1-1-.76C26.06,19.86,25.75,19.41,25.42,19Z"/><path class="cls-15" d="M60.42,21V1.17c1.37,3.23.89,6.56,1,9.85s0,6.65,0,10Z"/><path class="cls-27" d="M96.42,27c-.11,2.44-1.45,4.28-3,6h-1V31c1.49-.09.85-1.24,1-2l1-1c1.49-.09.85-1.24,1-2C95.75,26.33,96.08,26.67,96.42,27Z"/><path class="cls-8" d="M27.42,28l1,1v1C26.92,29.91,27.57,28.76,27.42,28Z"/><path class="cls-16" d="M28.42,34V33c.33-.33.66-.67,1-1C29.27,32.76,29.91,33.91,28.42,34Z"/><path class="cls-28" d="M117.42,21V20h1C118.08,20.33,117.75,20.67,117.42,21Z"/><path class="cls-4" d="M116.42,26c.33-.33.66-.67,1-1v1Z"/><path class="cls-8" d="M26.42,26l1,1Z"/><path class="cls-8" d="M26.42,29l-1-1Z"/><path class="cls-29" d="M82.42,6c.33.33.66.67,1,1-.34.33-.67.67-1,1-.34-.33-.67-.67-1-1Z"/><path class="cls-28" d="M100.42,3l-1-1C99.75,2.33,100.08,2.67,100.42,3Z"/><path class="cls-28" d="M101.42,4c-.34-.33-.67-.67-1-1Z"/><path class="cls-28" d="M102.42,5l-1-1C101.75,4.33,102.08,4.67,102.42,5Z"/><path class="cls-28" d="M103.42,6c-.34-.33-.67-.67-1-1Z"/><path class="cls-28" d="M104.42,7l-1-1C103.75,6.33,104.08,6.67,104.42,7Z"/><path class="cls-28" d="M105.42,8c-.34-.33-.67-.67-1-1Z"/><path class="cls-28" d="M106.42,9l-1-1C105.75,8.33,106.08,8.67,106.42,9Z"/><path class="cls-28" d="M107.42,10c-.34-.33-.67-.67-1-1Z"/><path class="cls-28" d="M108.42,11l-1-1C107.75,10.33,108.08,10.67,108.42,11Z"/><path class="cls-28" d="M109.42,12c-.34-.33-.67-.67-1-1Z"/><path class="cls-28" d="M110.42,13l-1-1C109.75,12.33,110.08,12.67,110.42,13Z"/><path class="cls-28" d="M111.42,14c-.34-.33-.67-.67-1-1Z"/><path class="cls-28" d="M112.42,15l-1-1C111.75,14.33,112.08,14.67,112.42,15Z"/><path class="cls-28" d="M113.42,16c-.34-.33-.67-.67-1-1Z"/><path class="cls-28" d="M114.42,17c-.34-.33-.67-.67-1-1C113.75,16.33,114.08,16.67,114.42,17Z"/><path class="cls-28" d="M115.42,18l-1-1C114.75,17.33,115.08,17.67,115.42,18Z"/><path class="cls-28" d="M116.42,19c-.34-.33-.67-.67-1-1Z"/><path class="cls-28" d="M117.42,20l-1-1C116.75,19.33,117.08,19.67,117.42,20Z"/><path class="cls-9" d="M38.42,7c1.33-1.33,2.66-2.67,4-4h2c-1.67,1.67-3.34,3.33-5,5Z"/><path class="cls-7" d="M40.42,71l1,1Z"/><path class="cls-7" d="M41.42,72l1,1Z"/><path class="cls-8" d="M47.42,80c.33.33.66.67,1,1C48.08,80.67,47.75,80.33,47.42,80Z"/><path class="cls-14" d="M50.42,84c.33.33.66.67,1,1C51.08,84.67,50.75,84.33,50.42,84Z"/><path class="cls-8" d="M48.42,81c.33.33.66.67,1,1C49.08,81.67,48.75,81.33,48.42,81Z"/><path class="cls-4" d="M115.42,27c.33-.33.66-.67,1-1C116.08,26.33,115.75,26.67,115.42,27Z"/><path class="cls-4" d="M114.42,28c.33-.33.66-.67,1-1C115.08,27.33,114.75,27.67,114.42,28Z"/><path class="cls-4" d="M112.42,31l1-1Z"/><path class="cls-10" d="M111.42,32l1-1Z"/><path class="cls-10" d="M110.42,33l1-1Z"/><path class="cls-4" d="M77.42,76c.33-.33.66-.67,1-1C78.08,75.33,77.75,75.67,77.42,76Z"/><path class="cls-4" d="M76.42,77c.33-.33.66-.67,1-1C77.08,76.33,76.75,76.67,76.42,77Z"/><path class="cls-4" d="M74.42,80c.33-.33.66-.67,1-1C75.08,79.33,74.75,79.67,74.42,80Z"/><path class="cls-13" d="M73.42,81c.33-.33.66-.67,1-1C74.08,80.33,73.75,80.67,73.42,81Z"/><path class="cls-13" d="M72.42,82c.33-.33.66-.67,1-1C73.08,81.33,72.75,81.67,72.42,82Z"/><path class="cls-11" d="M15.42,39l1,1h-1Z"/><path class="cls-8" d="M16.42,40l1,1Z"/><path class="cls-8" d="M17.42,41l1,1Z"/><path class="cls-13" d="M23.42,49l1,1Z"/><path class="cls-13" d="M24.42,50l1,1Z"/><path class="cls-10" d="M104.42,41c.33-.33.66-.67,1-1C105.08,40.33,104.75,40.67,104.42,41Z"/><path class="cls-10" d="M103.42,42c.33-.33.66-.67,1-1C104.08,41.33,103.75,41.67,103.42,42Z"/><path class="cls-12" d="M97.42,50l1-1Z"/><path class="cls-12" d="M96.42,51l1-1Z"/><path class="cls-7" d="M33.42,62l1,1Z"/><path class="cls-7" d="M34.42,63l1,1Z"/><path class="cls-11" d="M91.42,58c.33-.33.66-.67,1-1v1Z"/><path class="cls-30" d="M92.42,58V57l1,1Z"/><path class="cls-11" d="M90.42,59c.33-.33.66-.67,1-1C91.08,58.33,90.75,58.67,90.42,59Z"/><path class="cls-11" d="M89.42,60c.33-.33.66-.67,1-1C90.08,59.33,89.75,59.67,89.42,60Z"/><path class="cls-23" d="M86.42,67h-1V66Z"/><path class="cls-7" d="M9.42,31l1,1Z"/><path class="cls-7" d="M10.42,32l1,1Z"/><circle class="cls-23" cx="11.92" cy="35.5" r="0.71"/><path class="cls-7" d="M85.42,66v1h-1Z"/><path class="cls-7" d="M83.42,68l1-1Z"/><path class="cls-7" d="M81.42,71c.33-.33.66-.67,1-1C82.08,70.33,81.75,70.67,81.42,71Z"/><path class="cls-13" d="M80.42,72c.33-.33.66-.67,1-1C81.08,71.33,80.75,71.67,80.42,72Z"/><path class="cls-13" d="M79.42,73c.33-.33.66-.67,1-1C80.08,72.33,79.75,72.67,79.42,73Z"/><path class="cls-23" d="M28.42,58l1-1Z"/><path class="cls-11" d="M12.42,36V35c.33.33.66.67,1,1Z"/><path class="cls-11" d="M13.42,36c.33.33.66.67,1,1Z"/><path class="cls-11" d="M14.42,37l1,1Z"/><path class="cls-31" d="M45.42,68a4.58,4.58,0,0,1-2-4l-1-1c-3.67-7.17-7.35-14.34-11-21.54-.2-.39,0-1,0-1.46l1-1c2.45,2.58,3.34,6,5,9.06,2.32,4.31,4.48,8.72,6.66,13.11A7.25,7.25,0,0,1,44.42,63l1,1,1,1v2Z"/><path class="cls-32" d="M28.42,34c1.49-.09.85-1.24,1-2,1.55,1.72,2.89,3.56,3,6-1.5.09-.85,1.24-1,2C29.86,38.28,28.53,36.44,28.42,34Z"/><path class="cls-16" d="M31.42,40c.15-.76-.5-1.91,1-2v1Z"/><path class="cls-33" d="M45.42,64l-1-1Z"/><path class="cls-28" d="M92.42,36c0,.49.17,1.08,0,1.47Q85.69,50.76,78.9,64c0,.07-.32,0-.48,0l-1-1V61c.33-.33.66-.67,1-1q6-12.11,12-24.21c.17-.34.64-.53,1-.79C91.75,35.33,92.08,35.67,92.42,36Z"/><path class="cls-16" d="M92.42,36c-.34-.33-.67-.67-1-1V33h2C93,34,94.34,35.53,92.42,36Z"/><path class="cls-2" d="M94.42,26h1c-.15.76.49,1.91-1,2V26Z"/><path class="cls-16" d="M76.42,66V64c.33-.33.66-.67,1-1l1,1c-.34,1-.67,2-1,3C77.08,66.67,76.75,66.33,76.42,66Z"/><path class="cls-16" d="M76.42,66c.33.33.66.67,1,1-.67,1-1.34,2-2,3-.34-.33-.67-.67-1-1V68c1.49-.09.85-1.24,1-2Z"/><path class="cls-27" d="M45.42,68l1-1c-.15.76.49,1.91-1,2Z"/><path class="cls-33" d="M42.42,63l1,1Z"/><circle class="cls-27" cx="83.42" cy="8" r="1"/><circle class="cls-27" cx="38.42" cy="8" r="1"/><circle class="cls-27" cx="37.42" cy="9" r="1"/><path class="cls-29" d="M83.42,7l-1,1C82.75,7.67,83.08,7.33,83.42,7Z"/><path class="cls-27" d="M39.42,8l-1-1Z"/></g></g></svg>