<svg xmlns="http://www.w3.org/2000/svg" viewBox="0 0 107 105.91"><defs><style>.cls-1{fill:#d7d581;}.cls-2{fill:#d8d582;}.cls-3{fill:#fdfdfa;}.cls-4{fill:#fefefa;}.cls-5{fill:#fdfdf8;}.cls-6{fill:#fafaf1;}.cls-7{fill:#dad788;}</style></defs><title>fair trade</title><g id="Layer_2" data-name="Layer 2"><g id="Layer_1-2" data-name="Layer 1"><path class="cls-1" d="M101.09,65.72c-1.06-3-1.4-6.27-5.06-7V34.23l5.47-3.68,5.5,3.67V68.93c-2.09,7.77-7.3,11.39-11.25,16C92,89.36,88.07,93.5,84,97.56a6.47,6.47,0,0,0-2,5.17c0,1,0,2,0,3.15H62.52A37.51,37.51,0,0,1,63,90.74a13.52,13.52,0,0,1,3.48-5.53C73.55,77.92,80.79,70.79,88,63.6c.11-.11.23-.24.35-.35,2.41-2.18,3.76-2.4,7.31-1.13a14.36,14.36,0,0,0,.59,1.65,12.41,12.41,0,0,0,.91,1.41,9.55,9.55,0,0,1-3.22,5.5A102.47,102.47,0,0,0,84,81.52a7.78,7.78,0,0,0-1.8,6.36h2c2.38-3.19,4.67-6.38,7.09-9.47a26.83,26.83,0,0,1,3.53-3.54A21.39,21.39,0,0,0,101.09,65.72Z"/><path class="cls-1" d="M11,35.12V58.64L7.13,62.08v6.85c4.14,4.39,8.51,8.84,12.64,13.5,1.28,1.45,1.94,3.47,3,5.53h3c.07-.45.33-1,.19-1.35-.87-2.33-1.58-4.75-3.47-6.55-1.33-1.26-2.64-2.54-3.88-3.88-2.55-2.73-5-5.51-7.52-8.22v-4.6l3.06-2.17h2.46Q27.39,71.94,38.15,82.71c2.62,2.61,5.48,5,6.77,9.91v13.29H25.25V99.43c-6.46-6.67-13-13.35-19.48-20.14A19.86,19.86,0,0,1,0,65.22c0-9,0-18,0-26.95,0-5.08,1.88-6.88,7.53-7.21Z"/><path class="cls-2" d="M53.1,68c-5.88.89-11.2-1.28-16.19-4A34.88,34.88,0,0,1,24,51.21a33.35,33.35,0,0,1-4.84-17.39,29.15,29.15,0,0,1,2.16-11.51,36.85,36.85,0,0,1,9.78-14,37.84,37.84,0,0,1,9.07-5.89C45.25.15,50.66-.08,56.17,0c8.74.17,16,4,21.85,9.81A33,33,0,0,1,88,35.57,32.5,32.5,0,0,1,78,58.32C71.26,64.77,63.11,69,53.1,68Zm-30-33.53a20.08,20.08,0,0,0,2,12.12c2.59,4.67,5.36,9,10,12.41,4.09,3,8.67,4.13,13,6.09,8.25.3,16-.4,23.21-5.57,9.45-6.75,12.9-15.77,13.77-25.3.21-2.24-1.09-4-1-6.09.06-2.3-.87-4.27-1.76-6.27A31.12,31.12,0,0,0,67.1,6,30.18,30.18,0,0,0,45.27,4.11,27.38,27.38,0,0,0,33,10.63C26.5,17,22.25,24.43,23.05,34.45Z"/><path class="cls-1" d="M27,34.06c-.4-7.61,2.52-13.89,7.74-19.23S46.59,7.32,54,7A24.39,24.39,0,0,1,68.2,11.19,29.86,29.86,0,0,1,77.94,21.9a24.81,24.81,0,0,1,2.93,12.19,25.21,25.21,0,0,1-2.93,12.18A30,30,0,0,1,68.18,57,24.38,24.38,0,0,1,53.45,61.1c-7.18-.42-13.59-2.51-18.72-7.8S26.61,41.66,27,34.06Zm26.5-13h5.27L62,16.6V13.24L56.28,8.91l-5.42,2.72c-.36,1.89-.74,3.9-1.09,5.7C51.07,18.64,52.12,19.69,53.51,21.07Zm3.1,12.11c-4-2.65-4-2.65-8.33-.79l-2.41,4.93,3.33,4.75h5.61l3.25-4.6Zm10.9,6.89H63.58L60,43.56v3.92L63.43,51c2.4.27,4.59,0,5.89-.92a7.59,7.59,0,0,0,1.55-6.65ZM40,46.57v5l3.48,3.55h3c4-2.53,4.35-3.17,4.47-7.36-1.22-1.28-2.36-2.48-3.43-3.62h-5ZM67.7,35.26l4.23-3.7v-4.4l-2.25-3H64.05l-3.39,5.3,2.23,4.34ZM44.85,34V23.32H34.17V34Z"/><path class="cls-3" d="M53.51,21.07c-1.39-1.38-2.44-2.43-3.74-3.74.35-1.8.73-3.81,1.09-5.7l5.42-2.72L62,13.24V16.6l-3.23,4.47Z"/><path class="cls-4" d="M56.61,33.18l1.45,4.29-3.25,4.6H49.2l-3.33-4.75,2.41-4.93C52.57,30.53,52.57,30.53,56.61,33.18Z"/><path class="cls-3" d="M67.51,40.07l3.36,3.37a7.59,7.59,0,0,1-1.55,6.65c-1.3,1-3.49,1.19-5.89.92L60,47.48V43.56l3.57-3.49Z"/><path class="cls-5" d="M40,46.57l2.51-2.48h5c1.07,1.14,2.21,2.34,3.43,3.62-.12,4.19-.5,4.83-4.47,7.36h-3L40,51.52Z"/><path class="cls-5" d="M67.7,35.26l-4.81-1.49-2.23-4.34,3.39-5.3h5.63l2.25,3v4.4Z"/><path class="cls-6" d="M44.85,34H34.17V23.32H44.85ZM36.1,31.9h5.58l1.23-1.23v-4.2l-1.2-1.2H36.1Z"/><path class="cls-7" d="M36.1,31.9V25.27h5.61l1.2,1.2v4.2L41.68,31.9Z"/></g></g></svg>