<svg xmlns="http://www.w3.org/2000/svg" viewBox="0 0 116.99 116.15"><defs><style>.cls-1{fill:#d8d581;}.cls-2{fill:#d9d684;}.cls-3{fill:#dad788;}.cls-4{fill:#dad787;}.cls-5{fill:#fefefb;}.cls-6{fill:#f4f2de;}.cls-7{fill:#f8f8ec;}.cls-8{fill:#eeeccb;}.cls-9{fill:#f3f2dd;}.cls-10{fill:#e7e4b0;}.cls-11{fill:#f1efd4;}.cls-12{fill:#fcfcf8;}.cls-13{fill:#efeccd;}.cls-14{fill:#efedd0;}.cls-15{fill:#e5e2ab;}.cls-16{fill:#efeed0;}.cls-17{fill:#eae8bd;}.cls-18{fill:#fdfcf8;}.cls-19{fill:#f8f8ee;}.cls-20{fill:#f7f5e7;}.cls-21{fill:#fcfbf6;}.cls-22{fill:#fcfbf5;}.cls-23{fill:#fcfcf6;}.cls-24{fill:#fdfefb;}.cls-25{fill:#fdfefc;}</style></defs><title>Green Workshop</title><g id="Layer_2" data-name="Layer 2"><g id="Layer_1-2" data-name="Layer 1"><path class="cls-1" d="M84.8,22.75c.66,8,.32,14.87-5.28,20.42-5.31,5.28-11.79,7.2-19.3,7V66C70.51,65.9,78.76,69.36,83,79.44c1.84,4.41,3.21,8.92.84,14.08L72.2,91.33c-1,9.73-4.6,18.48-13,24.82H57.48a41.61,41.61,0,0,1-10.9-18c-.65-2.11-.58-4.44-.88-7l-12,2.25-1.59-1.59a22.52,22.52,0,0,1,6-19.15c5-5.32,11.66-6.63,18.77-6.62V50.18a22.18,22.18,0,0,1-18.77-6.84,22.75,22.75,0,0,1-6-18.78l1.18-1.19c4.28-1.09,8.19,1.43,12.8,1.88C44.87,17.19,48.55,10.9,52.84,5,54.35,2.93,56,.32,59.2,0a42.13,42.13,0,0,1,9.1,11.74c2.33,4.27,2.33,9,4,13.18ZM66,81.16c-.33-.33-.67-.66-1-1v-1c-.33-.33-.67-.66-1-1-.33-1-.67-2-1-3-.28-1.44-1.06-1.18-1.94-.57.21.91-.91,2.28.94,2.57.67,1.34,1.33,2.67,2,4,.33.34.67.67,1,1s.67.67,1,1l.74,1.56C66.8,83,67.87,81.75,66,81.16Zm1-48c1.4-.24,1.17-1,.5-2.1L66,33.16c-2.27.91-2.65,3-3,5-1.31,1.63-1.32,1.76,0,4.34V40.16c2.65-1.12,2.53-4.08,4-6Zm-13,7,1.73,2.4c.07-1.56,1.14-2.8-.73-3.4-.15-.75.5-1.91-1-2-.15-.75.5-1.91-1-2l-1.64-3.25-1.72,1L52,36.16c.33.67.67,1.34,1,2S53.67,39.5,54,40.16Zm-1,38a2.47,2.47,0,0,0-2,3c-1.87.6-.8,1.84-.73,3.4L52,82.16l2-3c.5-1.22,1.75-2.31.56-4C53.58,76,52.67,76.69,53,78.16ZM58.54,3C52.08,10,47.76,17.36,49.17,26.82c3.85,4,8.38,7.32,9.29,13.78,2.43-6,4.9-11.08,10.59-13.65C68.86,17.45,64.73,9.92,58.54,3Zm.91,109.18a24.25,24.25,0,0,0,7.4-10.9c1.17-3.43,2.86-7,2-10.75-2.32-2.31-4.72-4.22-6.47-6.61s-2.68-5.08-4.06-7.8c-1.69,5.32-4.23,9.94-9.18,12.55C47.76,98,52.31,105.2,57.7,112.16ZM35.07,25.77c-1.07,13.44,11.7,23.48,21,20.9-5.66-5-8.5-11.53-10.28-18.32Zm.17,64.58c3.17-.77,6.06-1.41,8.91-2.22,1.11-.32,1.58-1.23,1.93-2.48A30.15,30.15,0,0,1,50.8,75.57c1.38-1.9,3.81-3.37,4-6.11C43.24,68.07,33.32,78.76,35.24,90.35ZM61.39,47.54c3.72-.62,6.66-.65,9.22-1.66a20.8,20.8,0,0,0,6.57-4.5c3.86-3.75,4.88-8.82,5.42-14.14l-1.52-1.3-9.79,3C70.4,36.33,66.25,41.46,61.39,47.54Zm.35,21.73c2.26,3.19,4.53,5.85,6.18,8.86s2.61,6.23,4,9.55c3.1,1.69,6.62,1.81,10,2.39.9-6.39-2.46-10.93-5.17-15.7C72.22,71.88,68,68.67,61.74,69.27Z"/><path class="cls-2" d="M24,69.73c-5-.47-9.66-1.47-13.9-4C6.91,63.9,3.49,60.65,0,56.1c11.8-14.41,34-16.2,47.17,2.32A33.36,33.36,0,0,1,24,69.73ZM43.24,58.41c-7.31-9-13.12-11.3-24.22-10.12-5.88.62-10.87,3.86-15.26,7.76a26.85,26.85,0,0,0,13.71,9.78C27.35,67.53,35.7,64.81,43.24,58.41Z"/><path class="cls-2" d="M117,54.61v2.84c-3,4.19-7.35,6.53-11.24,9.37a10,10,0,0,1-5.08,2.07c-5.75.19-11.5,1.17-17.16-1.54a74.94,74.94,0,0,1-12.44-7.56V56.26c.86-.77,2-1.94,3.32-3,3.8-3,7.34-6.42,12.38-7.56a13.93,13.93,0,0,1,2.73-.56c2.33,0,4.68.17,7-.06,3.33-.32,6.25,1,9.1,2.22A49.63,49.63,0,0,1,117,54.61ZM74.37,57.12a15.64,15.64,0,0,0,2.1,3,27.42,27.42,0,0,0,11.42,6c9.72,2.07,19.07-1.63,25.89-9.61-7.22-7.83-16.47-9.09-25.27-8.24C82.7,50.27,78.74,53.33,74.37,57.12Z"/><path class="cls-3" d="M28,30.75v4.69l-2.37,3.13c-1.79,1.81-4.25,2-6.59,1.52S14.93,38,14,34.86V30.64l4.46-4.26C22.4,25.14,25.15,27.49,28,30.75Zm-10.83.73V35l.79-.62,1.35,2.77h2.23l3.38-2.31V32.28L22.61,29.2H19.52Z"/><path class="cls-4" d="M23.54,73.2l4.3,4.36v5.26L23.65,87h-5.3l-4.21-4.21V77.72l3-3.93C18.34,72.82,20.94,73.12,23.54,73.2ZM25,79.74l-2.46-3.58H19.83l-2.74,2.37v2.81l2.29,2.78h3L25,81.69Z"/><path class="cls-4" d="M98.5,73.16l4.35,4.38v4.51l-3.94,5H93.35L89.14,82.8V77.73l2.25-3C93.34,72.73,96,73.2,98.5,73.16ZM92,81l2.36,3h3.36l-.43-.54,2.65-1.72v-3l-2.37-2.65H95.64L92,78.78Z"/><path class="cls-3" d="M102.94,35.73,98.64,40H93.3c-4.3-2.7-4.3-2.7-4.3-9.37l4.38-4.34h4C101.62,28,103.57,31.13,102.94,35.73Zm-2.94-3-2.46-3.58H94.83l-2.74,2.37v2.81l2.29,2.78h3L100,34.69Z"/><path class="cls-5" d="M35.07,25.77l10.7,2.58c1.78,6.79,4.62,13.34,10.28,18.32C46.77,49.25,34,39.21,35.07,25.77Z"/><path class="cls-5" d="M35.24,90.35c-1.92-11.59,8-22.28,19.54-20.89-.17,2.74-2.6,4.21-4,6.11a30.15,30.15,0,0,0-4.72,10.08c-.35,1.25-.82,2.16-1.93,2.48C41.3,88.94,38.41,89.58,35.24,90.35Z"/><path class="cls-5" d="M61.39,47.54c4.86-6.08,9-11.21,9.9-18.64l9.79-3,1.52,1.3c-.54,5.32-1.56,10.39-5.42,14.14a20.8,20.8,0,0,1-6.57,4.5C68.05,46.89,65.11,46.92,61.39,47.54Z"/><path class="cls-5" d="M61.74,69.27c6.26-.6,10.48,2.61,15,5.1,2.71,4.77,6.07,9.31,5.17,15.7-3.39-.58-6.91-.7-10-2.39-1.34-3.32-2.33-6.61-4-9.55S64,72.46,61.74,69.27Z"/><path class="cls-6" d="M67,34.16c-1.47,1.92-1.35,4.88-4,6v-2c.35-2,.73-4.09,3-5C66.33,33.5,66.67,33.83,67,34.16Z"/><path class="cls-7" d="M65,79.16v2H64c-.67-1.33-1.33-2.66-2-4,.15-.75-.5-1.91,1-2,.33,1,.67,2,1,3C64.33,78.5,64.67,78.83,65,79.16Z"/><path class="cls-8" d="M52,36.16l-2.36-3.29,1.72-1L53,35.16C52.67,35.5,52.33,35.83,52,36.16Z"/><path class="cls-9" d="M51,81.16a2.47,2.47,0,0,1,2-3c.33.34.67.67,1,1l-2,3C51.67,81.83,51.33,81.5,51,81.16Z"/><path class="cls-6" d="M54,79.16c-.33-.33-.67-.66-1-1-.33-1.47.58-2.2,1.56-3C55.75,76.85,54.5,77.94,54,79.16Z"/><path class="cls-10" d="M63,75.16c-1.5.09-.85,1.25-1,2-1.85-.29-.73-1.66-.94-2.57C61.94,74,62.72,73.72,63,75.16Z"/><path class="cls-11" d="M54,37.16c1.5.09.85,1.25,1,2-.33.34-.67.67-1,1-.33-.66-.67-1.33-1-2C53.33,37.83,53.67,37.5,54,37.16Z"/><path class="cls-12" d="M54,37.16c-.33.34-.67.67-1,1-.33-.66-.67-1.33-1-2,.33-.33.67-.66,1-1C54.5,35.25,53.85,36.41,54,37.16Z"/><path class="cls-13" d="M63,38.16V42.5C61.68,39.92,61.69,39.79,63,38.16Z"/><path class="cls-14" d="M52,82.16l-1.73,2.4c-.07-1.56-1.14-2.8.73-3.4C51.33,81.5,51.67,81.83,52,82.16Z"/><path class="cls-15" d="M54,40.16c.33-.33.67-.66,1-1,1.87.6.8,1.84.73,3.4Z"/><path class="cls-16" d="M66,81.16c1.87.59.8,1.83.74,3.56L66,83.16Z"/><path class="cls-17" d="M66,33.16l1.5-2.1c.67,1.08.9,1.86-.5,2.1Z"/><path class="cls-18" d="M66,81.16v2c-.33-.33-.67-.66-1-1v-1Z"/><path class="cls-19" d="M66,33.16h1v1C66.67,33.83,66.33,33.5,66,33.16Z"/><path class="cls-20" d="M65,79.16c-.33-.33-.67-.66-1-1C64.33,78.5,64.67,78.83,65,79.16Z"/><path class="cls-20" d="M66,81.16H65v-1C65.33,80.5,65.67,80.83,66,81.16Z"/><path class="cls-20" d="M65,81.16v1c-.33-.33-.67-.66-1-1Z"/><path class="cls-21" d="M17.17,31.48l2.35-2.28h3.09l2.31,3.08v2.57l-3.38,2.31H19.31L18,34.39l-.79.62Z"/><path class="cls-22" d="M25,79.74v2l-2.62,2.43h-3l-2.29-2.78V78.53l2.74-2.37h2.71Z"/><path class="cls-22" d="M92,81V78.78l3.64-2.59h1.93l2.37,2.65v3l-2.65,1.72.43.54H94.36Z"/><path class="cls-23" d="M100,32.74v1.95l-2.62,2.43h-3l-2.29-2.78V31.53l2.74-2.37h2.71Z"/><path class="cls-24" d="M53,35.16c-.33.34-.67.67-1,1C52.33,35.83,52.67,35.5,53,35.16Z"/><path class="cls-25" d="M52,82.16c-.33-.33-.67-.66-1-1C51.33,81.5,51.67,81.83,52,82.16Z"/></g></g></svg>