<svg xmlns="http://www.w3.org/2000/svg" viewBox="0 0 76.08 115.83"><defs><style>.cls-1{fill:#d7d481;}.cls-2{fill:#d7d581;}.cls-3{fill:#d8d582;}.cls-4{fill:#d7d582;}.cls-5{fill:#d8d683;}.cls-6{fill:#dfdc95;}.cls-7{fill:#dcd98c;}.cls-8{fill:#dad785;}</style></defs><title>women&amp;apos;s empowerment</title><g id="Layer_2" data-name="Layer 2"><g id="Layer_1-2" data-name="Layer 1"><path class="cls-1" d="M23.07,115.83c0-10.82-.07-21.46.05-32.1a12.78,12.78,0,0,0-2.95-8.33c-4.44-6-9.32-11.61-13.22-18a19.5,19.5,0,0,0-3.54-4.51A9.52,9.52,0,0,1,.15,43.74c2.29-4.81,4.59-9.69,6.93-14.55.94-2,2.38-3.74,2.92-5.78,1.38-5.23,5.63-6.11,9.78-6.3,8-.37,15.95-.11,23.79-.11.49.49.85.84,1.25,1.25a2.65,2.65,0,0,1-.15.65,22.77,22.77,0,0,1-2.53,4.42c-1.37,1.54-2.57,3.4-4.82,4S33.15,28.52,31,29a18.67,18.67,0,0,1-3.6,0c-2.12,4.76-4.26,9.54-6.47,14.49,3.25,1.48,6.9,1.56,10,3.44,4.8,2.86,8.85,6.07,10.45,11.78a12.33,12.33,0,0,1,.6,3.23c.05,4.16,0,8.33,0,12.63l2.07,1.65c.47-.42.9-.62.91-.82,0-6,0-12,0-18.18h6.08L56.43,63c1,0,2,0,3,0a6.55,6.55,0,0,0,6.16-3.11,80.35,80.35,0,0,0,4.51-9.11c.18-.38,0-.95-.07-1.61H67.44c-1.46,3-3,6.16-4.7,9.57-1.83,1.24-4,1.86-6.19,0-2.41-2.4-1.09-5.09,0-7.62,1.1-2.71,2.52-5.29,3.85-7.9A16.94,16.94,0,0,0,62.16,39c.62-3,3.26-4.71,5.23-6.8,5.58-.22,6,0,8.68,4.42,0,9.09,0,18.4,0,27.71a9.58,9.58,0,0,1-1,4.06c-2.46,5-5.18,9.85-7.61,14.85A20.25,20.25,0,0,0,65,92.73c.19,7.64,0,15.28,0,23.1Z"/><path class="cls-2" d="M60.71,12.89c2.44,1.15,4.65,2,5.72,4.8a4.83,4.83,0,0,1,0,4.48c-2.8,5.66-5.49,11.37-8.14,17.1-1.61,3.49-3.1,7-4.59,10.59A6.31,6.31,0,0,1,47,54c-.83,0-1.66,0-2.38,0-2.77-2.26-4.17-5-3.79-7,2.82-6.3,4.85-11.31,7.27-16.12,1.8-3.59,3.47-7.21,5-10.93A11.1,11.1,0,0,1,60.71,12.89Z"/><path class="cls-3" d="M45.07,29c.19,1.06-.53,1.74-.93,2.61-2.21,4.74-4.22,9.57-6.48,14.81L25.9,41.34c.78-3.27,2.51-6.19,4.35-9.23,4.2-.13,8.16-.9,11.3-4A7.79,7.79,0,0,1,44.07,27C45.57,27.09,44.92,28.24,45.07,29Z"/><path class="cls-4" d="M28.57,0h5L37,3.89c.75,3.31-.32,6.72-2.42,10H21.43C21.24,10.33,24.38,4.19,28.57,0Z"/><path class="cls-5" d="M48.07,16l-1.38-2.07H38.26c3-6,3-6,6.92-7.67l3.74,1.09L52,10.81a11.12,11.12,0,0,1-2,8.19c-1.33,0-.8-1.06-1-1.73A4.77,4.77,0,0,0,48.07,16Z"/><path class="cls-6" d="M45.07,29c-.15-.76.5-1.91-1-2,1.13-1.59,1.28-3.77,3-5l1,1C48,25.44,46.63,27.28,45.07,29Z"/><path class="cls-7" d="M48.07,16a4.77,4.77,0,0,1,1,1.27c.23.67-.3,1.72,1,1.73l-2,3h-1C47.08,20,48.78,18.17,48.07,16Z"/><path class="cls-8" d="M47.07,22h1v1Z"/></g></g></svg>